<svg id="sonrisa_1_" data-name="sonrisa (1)" xmlns="http://www.w3.org/2000/svg" width="477.866" height="477.866" viewBox="0 0 477.866 477.866">
  <g id="Grupo_14408" data-name="Grupo 14408">
    <g id="Grupo_14407" data-name="Grupo 14407">
      <path id="Trazado_10294" data-name="Trazado 10294" d="M238.933,0C106.974,0,0,106.974,0,238.933S106.974,477.866,238.933,477.866,477.866,370.892,477.866,238.933C477.726,107.033,370.834.141,238.933,0Zm0,443.733c-113.108,0-204.8-91.692-204.8-204.8s91.692-204.8,204.8-204.8,204.8,91.692,204.8,204.8C443.611,351.991,351.991,443.611,238.933,443.733Z" fill="#fff"/>
    </g>
  </g>
  <g id="Grupo_14410" data-name="Grupo 14410">
    <g id="Grupo_14409" data-name="Grupo 14409">
      <circle id="Elipse_14" data-name="Elipse 14" cx="34.133" cy="34.133" r="34.133" transform="translate(119.467 170.667)" fill="#fff"/>
    </g>
  </g>
  <g id="Grupo_14412" data-name="Grupo 14412">
    <g id="Grupo_14411" data-name="Grupo 14411">
      <circle id="Elipse_15" data-name="Elipse 15" cx="34.133" cy="34.133" r="34.133" transform="translate(290.134 170.667)" fill="#fff"/>
    </g>
  </g>
  <g id="Grupo_14414" data-name="Grupo 14414">
    <g id="Grupo_14413" data-name="Grupo 14413">
      <path id="Trazado_10295" data-name="Trazado 10295" d="M304.287,296.61a17.066,17.066,0,0,0-23.885-3.47q-.49.366-.953.766h0a68.693,68.693,0,0,1-81.033,0A17.067,17.067,0,0,0,176.1,319.73q.462.4.953.766a101.906,101.906,0,0,0,123.767,0A17.066,17.066,0,0,0,304.287,296.61Z" fill="#fff"/>
    </g>
  </g>
</svg>
